<mxfile host="app.diagrams.net" modified="2023-08-22T04:55:16.879Z" agent="Mozilla/5.0 (Windows NT 10.0; Win64; x64) AppleWebKit/537.36 (KHTML, like Gecko) Chrome/116.0.0.0 Safari/537.36" etag="SZbcKYwnkneFhhk6q4S7" version="21.6.8" type="github">
  <diagram name="Page-1" id="BhH8fKZnJ1AYjPZsarIK">
    <mxGraphModel dx="1050" dy="585" grid="1" gridSize="10" guides="1" tooltips="1" connect="1" arrows="1" fold="1" page="1" pageScale="1" pageWidth="850" pageHeight="1100" math="0" shadow="0">
      <root>
        <mxCell id="0" />
        <mxCell id="1" parent="0" />
        <mxCell id="4TwH-LX46hyZYiOAjWzK-1" value="Student Management&lt;br&gt;microservice" style="ellipse;whiteSpace=wrap;html=1;" vertex="1" parent="1">
          <mxGeometry x="150" y="100" width="130" height="120" as="geometry" />
        </mxCell>
        <mxCell id="4TwH-LX46hyZYiOAjWzK-2" value="Student &lt;br&gt;Management Database" style="shape=cylinder3;whiteSpace=wrap;html=1;boundedLbl=1;backgroundOutline=1;size=15;" vertex="1" parent="1">
          <mxGeometry x="155" y="310" width="120" height="150" as="geometry" />
        </mxCell>
        <mxCell id="4TwH-LX46hyZYiOAjWzK-3" value="Fees Management&lt;br&gt;microservice" style="ellipse;whiteSpace=wrap;html=1;" vertex="1" parent="1">
          <mxGeometry x="360" y="100" width="130" height="120" as="geometry" />
        </mxCell>
        <mxCell id="4TwH-LX46hyZYiOAjWzK-4" value="Payment Management&lt;br&gt;microservice" style="ellipse;whiteSpace=wrap;html=1;" vertex="1" parent="1">
          <mxGeometry x="550" y="100" width="130" height="120" as="geometry" />
        </mxCell>
        <mxCell id="4TwH-LX46hyZYiOAjWzK-5" value="Fees&lt;br&gt;Management Database" style="shape=cylinder3;whiteSpace=wrap;html=1;boundedLbl=1;backgroundOutline=1;size=15;" vertex="1" parent="1">
          <mxGeometry x="365" y="310" width="120" height="150" as="geometry" />
        </mxCell>
        <mxCell id="4TwH-LX46hyZYiOAjWzK-6" value="Payment&lt;br&gt;Management Database" style="shape=cylinder3;whiteSpace=wrap;html=1;boundedLbl=1;backgroundOutline=1;size=15;" vertex="1" parent="1">
          <mxGeometry x="555" y="310" width="120" height="150" as="geometry" />
        </mxCell>
        <mxCell id="4TwH-LX46hyZYiOAjWzK-7" value="" style="endArrow=classic;html=1;rounded=0;exitX=0.5;exitY=1;exitDx=0;exitDy=0;entryX=0.5;entryY=0;entryDx=0;entryDy=0;entryPerimeter=0;" edge="1" parent="1" source="4TwH-LX46hyZYiOAjWzK-1" target="4TwH-LX46hyZYiOAjWzK-2">
          <mxGeometry width="50" height="50" relative="1" as="geometry">
            <mxPoint x="400" y="330" as="sourcePoint" />
            <mxPoint x="210" y="280" as="targetPoint" />
          </mxGeometry>
        </mxCell>
        <mxCell id="4TwH-LX46hyZYiOAjWzK-8" value="" style="endArrow=classic;html=1;rounded=0;exitX=0.5;exitY=1;exitDx=0;exitDy=0;entryX=0.5;entryY=0;entryDx=0;entryDy=0;entryPerimeter=0;" edge="1" parent="1">
          <mxGeometry width="50" height="50" relative="1" as="geometry">
            <mxPoint x="424" y="220" as="sourcePoint" />
            <mxPoint x="424" y="310" as="targetPoint" />
          </mxGeometry>
        </mxCell>
        <mxCell id="4TwH-LX46hyZYiOAjWzK-9" value="" style="endArrow=classic;html=1;rounded=0;exitX=0.5;exitY=1;exitDx=0;exitDy=0;entryX=0.5;entryY=0;entryDx=0;entryDy=0;entryPerimeter=0;" edge="1" parent="1">
          <mxGeometry width="50" height="50" relative="1" as="geometry">
            <mxPoint x="614.5" y="220" as="sourcePoint" />
            <mxPoint x="614.5" y="310" as="targetPoint" />
            <Array as="points">
              <mxPoint x="614.5" y="270" />
            </Array>
          </mxGeometry>
        </mxCell>
      </root>
    </mxGraphModel>
  </diagram>
</mxfile>
